<?xml version="1.0" standalone="no"?>
<!DOCTYPE svg PUBLIC "-//W3C//DTD SVG 1.1//EN" "http://www.w3.org/Graphics/SVG/1.1/DTD/svg11.dtd">
<svg xmlns="http://www.w3.org/2000/svg">
<defs >
<font id="Sunflower" horiz-adv-x="883" ><font-face
    font-family="Sunflower"
    units-per-em="1000"
    panose-1="0 0 0 0 0 0 0 0 0 0"
    ascent="782"
    descent="-218"
    alphabetic="0" />
<glyph unicode=" " glyph-name="space" horiz-adv-x="220" />
<glyph unicode="!" glyph-name="exclam" horiz-adv-x="280" d="M212 0V161H68V0H212ZM199 250L213 680H68L81 250H199Z" />
<glyph unicode="&quot;" glyph-name="quotedbl" horiz-adv-x="411" d="M184 680H55L60 440H178L184 680ZM357 680H228L232 440H350L357 680Z" />
<glyph unicode="#" glyph-name="numbersign" horiz-adv-x="560" d="M544 261H448V387H544V499H448V660H332V499H228V660H112V499H16V387H112V261H16V149H112V0H228V149H332V0H448V149H544V261ZM228 261V387H332V261H228Z" />
<glyph unicode="$" glyph-name="dollar" horiz-adv-x="560" d="M508 199Q508 147 492 108T445 42T373 2T280 -12H279L264 -130Q190 -127 190 -123L204 -7Q128 2 80 14L60 18L73 122Q154 111 219 107L241 281Q190 296 154 314T96 356T63 408T52 476Q52 576 111
624T277 672H290L308 810H382L364 666Q395 663 423 659T478 650L495 646L484 540Q411 548 349 552L329 391Q381 375 415 358T470 319T499 268T508 199ZM375 190Q375 214 362 229T313 259L294 106Q375 115 375 190ZM185 485Q185 461 200 446T258 415L275 554Q185
550 185 485Z" />
<glyph unicode="%" glyph-name="percent" horiz-adv-x="560" d="M306 134Q306 279 426 279Q546 279 546 134Q546 -12 426 -12Q306 -12 306 134ZM409 185Q404 168 404 134Q404 100 409 83Q414 68 426 68Q440 68 444 83Q448 96 448 134Q448 172 444 185Q439 199
426 199Q414 199 409 185ZM14 527Q14 672 134 672Q254 672 254 527Q254 381 134 381Q14 381 14 527ZM117 578Q112 561 112 527Q112 493 117 476Q122 461 134 461Q148 461 152 476Q156 489 156 527Q156 565 152 578Q147 592 134 592Q122 592 117 578ZM198 -32L125
-8L360 699L433 673L198 -32Z" />
<glyph unicode="&amp;" glyph-name="ampersand" horiz-adv-x="701" d="M111 561Q111 631 166 671T319 712Q415 712 467 671T520 557Q520 521 513 494T490 444T448 399T383 349L481 251Q484 259 487 274T493 309T498 347T500 379L630 376Q615 260 579 173L691 75L615
-12L509 75Q474 37 420 13T304 -12Q231 -12 180 1T97 40T50 106T35 196Q35 277 69 323T177 399Q156 424 144 443T124 480T114 517T111 561ZM287 108Q327 108 365 119T418 148L245 321Q171 285 171 207Q171 108 287 108ZM247 531Q247 491 292 443L309 425Q351 455
367 478T384 535Q384 598 316 598Q247 598 247 531Z" />
<glyph unicode="&apos;" glyph-name="quotesingle" horiz-adv-x="239" d="M178 440L185 680H56L60 440H178Z" />
<glyph unicode="(" glyph-name="parenleft" horiz-adv-x="308" d="M186 301Q186 257 193 207T210 107T233 13T258 -62L281 -125H154Q147 -114 137 -95T117 -51T97 -2T79 48Q71 72 64 102T51 165T42 233T38 301Q38 368 50 438T79 563Q114 673 142 727L154 750H281Q264
707 247 649T217 529T195 407T186 301Z" />
<glyph unicode=")" glyph-name="parenright" horiz-adv-x="308" d="M270 301Q270 234 258 166T229 47Q193 -57 166 -104L154 -125H27Q44 -86 61 -31T91 83T113 199T122 301Q122 345 116 397T99 501T76 600T51 682L27 750H154Q161 738 171 717T191 669T212 615T230
562Q249 499 259 433T270 301Z" />
<glyph unicode="*" glyph-name="asterisk" horiz-adv-x="425" d="M389 573H266L304 695L229 720L190 599L89 672L43 609L145 536L40 458L87 399L190 478L231 357L304 379L266 499H389V573Z" />
<glyph unicode="+" glyph-name="plus" horiz-adv-x="560" d="M219 191V21H339V191H510V311H339V479H219V311H50V191H219Z" />
<glyph unicode="," glyph-name="comma" horiz-adv-x="263" d="M128 -123L218 137H70L20 -123H128Z" />
<glyph unicode="-" glyph-name="hyphen" horiz-adv-x="408" d="M352 205V327H56V205H352Z" />
<glyph unicode="." glyph-name="period" horiz-adv-x="256" d="M200 0V166H56V0H200Z" />
<glyph unicode="/" glyph-name="slash" horiz-adv-x="466" d="M149 -34L437 676L319 718L31 8L149 -34Z" />
<glyph unicode="0" glyph-name="zero" horiz-adv-x="560" d="M280 672Q407 672 471 591T536 327Q536 236 520 172T472 67T392 7T280 -12Q216 -12 168 7T88 67T40 172T24 327Q24 394 34 456T73 567T151 643T280 672ZM394 330Q394 453 368 503Q343 552 281 552Q250
552 229 540T193 502T173 434T166 329Q166 268 172 226T193 157T229 120T281 108Q343 108 368 157Q394 207 394 330Z" />
<glyph unicode="1" glyph-name="one" horiz-adv-x="560" d="M292 660L74 515L137 412L280 504V0H418V660H292Z" />
<glyph unicode="2" glyph-name="two" horiz-adv-x="560" d="M493 120V0H65V117L206 260Q244 299 269 327T310 378T333 422T340 466Q340 513 316 531T246 550Q180 550 100 538L76 535L69 642Q167 672 272 672Q482 672 482 483Q482 446 475 416T450 355T405 294T334
224L219 120H493Z" />
<glyph unicode="3" glyph-name="three" horiz-adv-x="560" d="M71 534L62 636Q154 672 268 672Q382 672 433 629T485 489Q485 393 408 342Q432 329 449 317T476 288T492 251T497 199Q497 91 444 40T272 -12Q187 -12 89 14L57 22L64 127Q121 117 167 113T252 108Q355
108 355 196Q355 233 329 255T259 277H126V391H259Q276 391 291 398T317 419T336 448T343 481Q343 552 244 552Q209 552 173 549T97 538L71 534Z" />
<glyph unicode="4" glyph-name="four" horiz-adv-x="560" d="M458 0V109H521V229H458V414H320V229H178L355 660H203L40 214V109H320V0H458Z" />
<glyph unicode="5" glyph-name="five" horiz-adv-x="560" d="M87 660H490V540H195L178 397Q240 421 296 421Q510 421 510 222Q510 110 452 49T284 -12Q261 -12 234 -10T180 -3T129 6T86 16L50 25L65 127Q126 117 176 113T267 108Q316 108 342 134T368 209Q368
257 346 279T284 301Q215 301 166 288L151 284L69 303L87 660Z" />
<glyph unicode="6" glyph-name="six" horiz-adv-x="560" d="M508 643L496 537Q394 552 319 552Q177 552 177 398L198 404Q262 423 303 423Q417 423 473 372T530 210Q530 100 467 44T281 -12Q159 -12 97 76T35 337Q35 509 106 590T310 672Q390 672 477 650L508
643ZM291 303Q246 303 193 286L176 281Q176 108 288 108Q336 108 362 134T388 209Q388 303 291 303Z" />
<glyph unicode="7" glyph-name="seven" horiz-adv-x="560" d="M353 537V505L128 24L256 -12L491 504V660H69V537H353Z" />
<glyph unicode="8" glyph-name="eight" horiz-adv-x="560" d="M278 672Q332 672 377 660T454 624T503 567T521 491Q521 462 518 442T507 405T485 373T449 340Q471 322 486 305T512 270T526 230T531 179Q531 130 513 94T461 35T382 0T278 -12Q28 -12 28 168Q28
200 32 224T47 267T73 304T111 340Q90 357 76 373T54 406T43 444T39 492Q39 543 60 577T115 633T192 663T278 672ZM176 200Q176 112 280 112Q383 112 383 200Q383 252 324 275H236Q176 253 176 200ZM280 548Q235 548 211 529T187 467Q187 426 236 392H324Q373 426
373 470Q373 548 280 548Z" />
<glyph unicode="9" glyph-name="nine" horiz-adv-x="560" d="M248 108Q381 108 381 270L360 263Q289 240 255 240Q146 240 87 292T28 451Q28 556 92 614T278 672Q398 672 460 584T523 321Q523 146 453 67T248 -12Q168 -12 81 10L50 17L62 123Q164 108 248 108ZM267
360Q314 360 366 378L382 383Q382 552 270 552Q222 552 196 526T170 451Q170 360 267 360Z" />
<glyph unicode=":" glyph-name="colon" horiz-adv-x="256" d="M200 0V166H56V0H200ZM200 289V455H56V289H200Z" />
<glyph unicode=";" glyph-name="semicolon" horiz-adv-x="279" d="M27 -123H135L225 137H77L27 -123ZM213 289V455H69V289H213Z" />
<glyph unicode="&lt;" glyph-name="less" horiz-adv-x="560" d="M472 489L66 306V196L472 10V146L211 254L472 353V489Z" />
<glyph unicode="=" glyph-name="equal" horiz-adv-x="560" d="M502 87V208H58V87H502ZM502 295V416H58V295H502Z" />
<glyph unicode="&gt;" glyph-name="greater" horiz-adv-x="560" d="M88 146V10L494 196V306L88 489V353L349 254L88 146Z" />
<glyph unicode="?" glyph-name="question" horiz-adv-x="437" d="M263 0H119V161H263V0ZM212 692Q405 692 405 536Q405 497 402 470T390 423T365 386T324 350Q276 314 261 292Q248 273 248 248V217H141Q110 251 110 308Q110 344 174 395Q236 445 252 466Q266 486
266 513Q266 572 181 572Q121 572 58 560L37 556L30 657Q117 692 212 692Z" />
<glyph unicode="@" glyph-name="at" horiz-adv-x="973" d="M944 305V297Q944 142 896 71T751 0Q680 0 635 36Q630 40 626 45T618 56Q538 0 470 0Q376 0 330 59T283 248Q283 379 326 439T474 500Q510 500 550 482L565 475V488H699V309Q699 171 705 151Q710 130
717 123Q723 115 730 114T749 112Q781 112 796 151Q810 191 810 297V306Q810 466 737 538T503 611Q342 611 257 520T172 252Q172 164 190 100T248 -7T350 -70T503 -91L646 -82L651 -199Q606 -204 569 -206T503 -209Q380 -209 292 -182T148 -98T65 48T38 261Q38
377 70 464T163 610T310 699T505 729Q723 729 833 621T944 305ZM481 118Q520 118 571 143Q565 179 565 249V372Q525 382 504 382Q478 382 462 375T436 353T423 312T419 251Q419 118 481 118Z" />
<glyph unicode="A" glyph-name="A" horiz-adv-x="602" d="M155 0L182 123H420L447 0H585L432 680H170L17 0H155ZM325 566L394 243H208L277 566H325Z" />
<glyph unicode="B" glyph-name="B" horiz-adv-x="609" d="M74 0V680H341Q447 680 500 638T553 500Q553 443 537 410T478 350Q523 331 544 295T566 195Q566 95 509 48T345 0H74ZM338 284H212V118H338Q383 118 404 136T426 202Q426 284 338 284ZM334 562H212V400H335Q413
400 413 481Q413 562 334 562Z" />
<glyph unicode="C" glyph-name="C" horiz-adv-x="543" d="M502 124L505 11Q451 0 404 -6T314 -12Q229 -12 178 9T98 76Q69 122 58 184T47 340Q47 439 59 506T102 614T182 674T307 692Q394 692 506 665L502 555Q403 570 338 570Q305 570 283 566T245 553T220 527T203
486Q196 461 193 420T189 319Q189 260 195 220T216 156T259 121T327 110Q369 110 412 113T502 124Z" />
<glyph unicode="D" glyph-name="D" horiz-adv-x="638" d="M303 0H74V680H303Q394 680 450 660T538 600T581 497T592 351Q592 268 582 203T542 92T454 24T303 0ZM448 270Q449 286 449 308T450 359Q450 416 446 449T427 511Q412 539 383 549T303 560H212V120H303Q378
120 409 154T448 270Z" />
<glyph unicode="E" glyph-name="E" horiz-adv-x="554" d="M514 0V120H212V283H454V401H212V560H514V680H74V0H514Z" />
<glyph unicode="F" glyph-name="F" horiz-adv-x="531" d="M212 0V240H454V360H212V560H508V680H74V0H212Z" />
<glyph unicode="G" glyph-name="G" horiz-adv-x="611" d="M419 244H357V364H555V11Q483 0 426 -6T323 -12Q244 -12 191 8T105 72T59 183T45 343Q45 436 59 502T106 610T191 672T318 692Q411 692 519 671L555 664L551 557Q491 564 442 567T355 570Q317 570 291
566T248 552T220 526T202 486Q187 437 187 320Q187 261 193 221T216 155T262 119T336 108L419 112V244Z" />
<glyph unicode="H" glyph-name="H" horiz-adv-x="677" d="M603 0V680H465V402H212V680H74V0H212V282H465V0H603Z" />
<glyph unicode="I" glyph-name="I" horiz-adv-x="286" d="M212 0V680H74V0H212Z" />
<glyph unicode="J" glyph-name="J" horiz-adv-x="302" d="M19 -70V50Q59 50 77 64T95 121V680H232L233 115Q233 61 222 25T185 -32T119 -61T19 -70Z" />
<glyph unicode="K" glyph-name="K" horiz-adv-x="593" d="M212 261L304 271L418 0H577L425 339L573 680H416L304 391L212 381V680H74V0H212V261Z" />
<glyph unicode="L" glyph-name="L" horiz-adv-x="472" d="M461 122H212V680H74V0H461V122Z" />
<glyph unicode="M" glyph-name="M" horiz-adv-x="858" d="M212 0V526H227L360 30H498L631 526H646V0H784V680H549L429 184L309 680H74V0H212Z" />
<glyph unicode="N" glyph-name="N" horiz-adv-x="693" d="M212 0V560H222L392 0H619V680H481V120H471L307 680H74V0H212Z" />
<glyph unicode="O" glyph-name="O" horiz-adv-x="652" d="M326 -12Q248 -12 195 9T108 72T59 181T44 337Q44 427 59 493T107 604T194 670T326 692Q404 692 457 671T544 605T593 494T608 337Q608 260 597 196T554 85T468 14T326 -12ZM216 161Q245 108 326 108Q367
108 393 120T436 160T459 231T466 337Q466 399 459 443T436 516T393 558T326 572Q286 572 259 559T216 516T193 443T186 337Q186 214 216 161Z" />
<glyph unicode="P" glyph-name="P" horiz-adv-x="589" d="M324 198H212V0H74V680H324Q566 680 566 444Q566 324 505 261T324 198ZM212 562V316H323Q426 316 426 444Q426 507 402 534T323 562H212Z" />
<glyph unicode="Q" glyph-name="Q" horiz-adv-x="652" d="M326 -12Q248 -12 194 8T107 72T59 181T44 337Q44 427 59 493T107 604T194 670T326 692Q404 692 457 671T544 605T593 493T608 336Q608 114 503 37L586 -97L460 -156L370 -9Q360 -12 326 -12ZM216 160Q244
108 326 108Q367 108 393 120T436 160T459 230T466 336Q466 398 459 442T436 516T393 558T326 572Q286 572 259 559T216 516T193 443T186 336Q186 213 216 160Z" />
<glyph unicode="R" glyph-name="R" horiz-adv-x="620" d="M345 228H212V0H74V680H338Q578 680 578 456Q578 323 478 260L575 0H424L345 228ZM212 346H340Q389 346 413 376T437 455Q437 504 412 533T338 562H212V346Z" />
<glyph unicode="S" glyph-name="S" horiz-adv-x="544" d="M283 572Q174 572 174 500Q174 468 201 451Q215 443 246 431T328 402Q378 386 412 369T467 330T497 277T507 205Q507 151 490 111T442 43T368 2T272 -12Q194 -12 81 12L45 19L59 126Q193 108 264 108Q370
108 370 196Q370 228 346 246Q320 264 248 285Q190 302 150 320T84 363T48 419T37 490Q37 593 98 642T269 692Q306 692 353 687T457 672L493 665L482 556Q411 564 362 568T283 572Z" />
<glyph unicode="T" glyph-name="T" horiz-adv-x="526" d="M195 558V0H333V558H513V680H13V558H195Z" />
<glyph unicode="U" glyph-name="U" horiz-adv-x="654" d="M206 680V227Q206 108 327 108Q448 108 448 227V680H586V230Q586 104 522 46T327 -12Q196 -12 132 46T68 230V680H206Z" />
<glyph unicode="V" glyph-name="V" horiz-adv-x="603" d="M324 120H279L161 680H16L174 0H429L587 680H442L324 120Z" />
<glyph unicode="W" glyph-name="W" horiz-adv-x="930" d="M149 0H358L465 517L572 0H781L911 680H766L682 118H667L545 680H385L263 118H248L164 680H19L149 0Z" />
<glyph unicode="X" glyph-name="X" horiz-adv-x="569" d="M9 680L205 326L9 0H152L281 235L407 0H560L364 333L560 680H417L288 430L162 680H9Z" />
<glyph unicode="Y" glyph-name="Y" horiz-adv-x="557" d="M348 275L556 680H403L278 409L153 680H0L210 275V0H348V275Z" />
<glyph unicode="Z" glyph-name="Z" horiz-adv-x="532" d="M325 560V542L41 119V0H491V120H207V138L491 560V680H41V560H325Z" />
<glyph unicode="[" glyph-name="bracketleft" horiz-adv-x="355" d="M68 749V-123H320V-3H205V629H320V749H68Z" />
<glyph unicode="\" glyph-name="backslash" horiz-adv-x="498" d="M146 716L32 664L350 -36L466 13L146 716Z" />
<glyph unicode="]" glyph-name="bracketright" horiz-adv-x="355" d="M150 629V-3H35V-123H287V749H35V629H150Z" />
<glyph unicode="^" glyph-name="asciicircum" horiz-adv-x="560" d="M523 313L329 660H215L21 313H161L274 530L383 313H523Z" />
<glyph unicode="_" glyph-name="underscore" horiz-adv-x="620" d="M96 -187H524V-73H96V-187Z" />
<glyph unicode="a" glyph-name="a" horiz-adv-x="511" d="M445 344V136Q447 112 453 103T478 89L474 -12Q423 -12 393 -5T331 23Q258 -12 184 -12Q29 -12 29 152Q29 232 72 265T204 305L311 313V344Q311 375 297 386T252 398L64 390L60 483Q168 512 264 512Q361
512 403 472T445 344ZM311 220L220 212Q164 207 164 152Q164 97 213 97Q251 97 296 109L311 113V220Z" />
<glyph unicode="b" glyph-name="b" horiz-adv-x="544" d="M304 512Q357 512 395 499T457 455T494 374T506 249Q506 175 493 125T451 45T374 1T257 -12Q235 -12 196 -10T100 -2L62 2V700H196V485Q261 512 304 512ZM257 108Q290 108 312 115T347 140T365 186T370
257Q370 392 286 392Q244 392 210 382L196 379V112Q219 110 234 109T257 108Z" />
<glyph unicode="c" glyph-name="c" horiz-adv-x="446" d="M249 512Q303 512 382 496L409 490L405 384Q365 388 336 390T288 392Q254 392 232 386T197 363T179 319T174 251Q174 210 179 183T196 139T231 115T289 108L405 116L409 9Q303 -12 246 -12Q135 -12 87
50T38 251Q38 389 88 450T249 512Z" />
<glyph unicode="d" glyph-name="d" horiz-adv-x="549" d="M353 700H487V0H354V21Q284 -12 233 -12Q179 -12 142 3T81 51T48 133T38 251Q38 388 89 450T245 512Q261 512 283 510T334 502L353 498V700ZM339 120L353 123V386Q300 396 255 396Q174 396 174 252Q174
174 192 141T252 108Q293 108 339 120Z" />
<glyph unicode="e" glyph-name="e" horiz-adv-x="510" d="M466 193H172Q173 147 196 127T264 106Q357 106 430 112L458 115L460 16Q347 -12 252 -12Q139 -12 88 48T37 243Q37 512 258 512Q476 512 476 286L466 193ZM171 295H344Q344 355 326 378T259 402Q211 402
192 378T171 295Z" />
<glyph unicode="f" glyph-name="f" horiz-adv-x="357" d="M341 386H220V0H86V386H32V500H86V522Q86 576 93 612T118 671T163 702T232 712Q271 712 325 702L346 699L344 590Q322 591 304 591T270 592Q240 592 230 576T220 521V500H341V386Z" />
<glyph unicode="g" glyph-name="g" horiz-adv-x="534" d="M515 -62Q515 -148 450 -189T271 -230Q159 -230 98 -200T37 -91Q37 -28 109 28Q72 53 72 104Q72 124 102 170L111 184Q43 234 43 329Q43 424 100 467T253 510Q298 510 338 500L354 497L515 502V395L440
401Q462 367 462 333Q462 283 450 250T411 196T345 166T251 157Q226 157 210 161Q200 137 200 119Q200 102 217 96Q232 91 297 89Q360 89 402 81T469 56T504 10T515 -62ZM177 333Q177 259 254 259Q330 259 330 333Q330 406 254 406Q177 406 177 333ZM169 -77Q169
-120 275 -120Q380 -120 380 -70Q380 -43 362 -35Q347 -29 286 -27L196 -20Q169 -47 169 -77Z" />
<glyph unicode="h" glyph-name="h" horiz-adv-x="553" d="M196 376V0H62V700H196V476Q265 512 320 512Q370 512 403 498T457 453T487 378T496 271V0H362V268Q362 331 347 361T287 392Q248 392 209 380L196 376Z" />
<glyph unicode="i" glyph-name="i" horiz-adv-x="258" d="M196 0V500H62V0H196ZM196 564V700H62V564H196Z" />
<glyph unicode="j" glyph-name="j" horiz-adv-x="259" d="M63 24V500H197V23Q197 -28 190 -64T162 -127T108 -179T19 -230L-34 -131Q-6 -112 12 -98T42 -68T58 -31T63 24ZM197 564H63V700H197V564Z" />
<glyph unicode="k" glyph-name="k" horiz-adv-x="515" d="M196 186L251 195L352 0H503L366 263L496 500H346L247 311L196 302V700H62V0H196V186Z" />
<glyph unicode="l" glyph-name="l" horiz-adv-x="270" d="M202 0V700H68V0H202Z" />
<glyph unicode="m" glyph-name="m" horiz-adv-x="839" d="M196 374V0H62V500H195V472Q263 512 313 512Q394 512 438 465Q530 512 606 512Q656 512 689 498T743 455T773 380T782 271V0H648V267Q648 331 634 361T578 392Q548 392 500 378L485 373Q487 335 488 307T489
259V0H355V257Q355 294 353 320T343 362T321 385T285 392Q247 392 208 378L196 374Z" />
<glyph unicode="n" glyph-name="n" horiz-adv-x="553" d="M196 374V0H62V500H195V472Q262 512 320 512Q370 512 403 498T457 453T487 378T496 271V0H362V267Q362 331 347 361T287 392Q247 392 208 378L196 374Z" />
<glyph unicode="o" glyph-name="o" horiz-adv-x="532" d="M266 512Q390 512 443 444T496 251Q496 -12 266 -12Q36 -12 36 251Q36 311 48 359T87 441T158 493T266 512ZM266 102Q320 102 340 137T360 251Q360 329 340 363T266 398Q212 398 192 364T172 251Q172 225
174 199T186 151T214 116T266 102Z" />
<glyph unicode="p" glyph-name="p" horiz-adv-x="544" d="M196 -210H62V500H195V473Q260 512 309 512Q360 512 397 498T458 452T494 369T506 246Q506 174 493 125T453 45T382 1T279 -12Q246 -12 208 -6L196 -4V-210ZM283 392Q246 392 208 377L196 372V110Q241
104 269 104Q327 104 348 138T370 254Q370 392 283 392Z" />
<glyph unicode="q" glyph-name="q" horiz-adv-x="543" d="M239 -12Q187 -12 149 1T86 46T50 127T38 252Q38 326 51 376T93 456T170 499T286 512Q317 512 356 510T445 502L481 499V-210H347V15Q283 -12 239 -12ZM286 396Q253 396 231 388T196 362T178 314T172 243Q172
108 257 108Q298 108 334 118L347 121V392Q328 394 313 395T286 396Z" />
<glyph unicode="r" glyph-name="r" horiz-adv-x="372" d="M196 0H62V500H195V447Q281 497 355 512V377Q314 369 280 360T216 342L196 335V0Z" />
<glyph unicode="s" glyph-name="s" horiz-adv-x="472" d="M423 486L421 375Q358 383 316 387T248 391Q198 391 184 382Q169 373 169 354Q169 335 189 327Q199 323 223 318T289 305Q329 298 357 287T403 257T429 213T437 150Q437 -12 236 -12Q171 -12 76 6L44 12L48
124Q111 116 153 112T221 108Q270 108 287 118Q304 127 304 146Q304 165 286 174Q268 182 190 196Q151 202 122 212T74 240T46 284T36 351Q36 391 50 421T90 471T151 501T229 511Q258 511 298 507T390 492L423 486Z" />
<glyph unicode="t" glyph-name="t" horiz-adv-x="364" d="M339 500V386H216V181Q216 166 216 156T218 139Q220 126 229 117T258 108L334 110L340 3Q273 -12 238 -12Q193 -12 163 -3T115 29T90 87T82 178V386H23V500H82V639H216V500H339Z" />
<glyph unicode="u" glyph-name="u" horiz-adv-x="553" d="M357 126V500H491V0H358V28Q287 -12 233 -12Q181 -12 147 2T93 46T65 123T57 238V500H191V236Q191 199 193 175T203 135T224 114T261 108Q304 108 344 122L357 126Z" />
<glyph unicode="v" glyph-name="v" horiz-adv-x="498" d="M135 0H363L483 500H347L263 114H235L155 500H15L135 0Z" />
<glyph unicode="w" glyph-name="w" horiz-adv-x="772" d="M119 0H329L386 306L443 0H653L748 500H616L555 114H531L455 490H317L241 114H217L156 500H24L119 0Z" />
<glyph unicode="x" glyph-name="x" horiz-adv-x="474" d="M151 251L14 0H157L237 153L318 0H461L319 255L461 500H318L237 345L157 500H14L151 251Z" />
<glyph unicode="y" glyph-name="y" horiz-adv-x="500" d="M139 0H233L178 -210H309L485 500H353L262 114H239L148 500H16L139 0Z" />
<glyph unicode="z" glyph-name="z" horiz-adv-x="454" d="M251 380L41 120V0H412V120H202L412 380V500H41V380H251Z" />
<glyph unicode="{" glyph-name="braceleft" horiz-adv-x="361" d="M251 576L258 448Q258 417 254 395T238 358T204 333T146 314Q181 305 203 294T237 267T254 227T259 172L252 55Q252 21 266 2T323 -20V-134Q268 -132 230 -122T167 -92T132 -39T121 38L128 159Q128
233 16 261V365Q128 390 128 459L121 586Q121 634 131 666T166 719T229 749T325 761V647Q282 643 267 626T251 576Z" />
<glyph unicode="|" glyph-name="bar" horiz-adv-x="268" d="M201 -210V700H67V-210H201Z" />
<glyph unicode="}" glyph-name="braceright" horiz-adv-x="361" d="M109 55L102 172Q102 204 106 227T123 266T158 294T215 314Q179 323 157 333T123 358T107 395T103 448L110 576Q110 609 95 626T36 647V761Q93 759 132 750T195 720T229 667T240 586L233 459Q233
390 345 365V261Q233 233 233 159L240 38Q240 -7 230 -39T195 -91T133 -122T38 -134V-20Q80 -17 94 2T109 55Z" />
<glyph unicode="~" glyph-name="asciitilde" horiz-adv-x="560" d="M383 170Q354 170 276 192Q198 214 178 214Q169 214 157 211T132 204T108 194T88 184L71 175L61 282Q123 334 184 334Q213 334 288 312Q363 290 384 290Q422 290 472 318L489 328L497 221Q477
201 445 186T383 170Z" />
<glyph unicode="&#xd7;" glyph-name="multiply" horiz-adv-x="560" d="M57 388L198 250L56 111L141 27L280 168L419 26L504 111L361 250L504 390L420 475L280 332L142 473L57 388Z" />
<glyph unicode="&#xf7;" glyph-name="divide" horiz-adv-x="560" d="M345 17V149H213V17H345ZM345 352V484H213V352H345ZM510 191V311H50V191H510Z" />
<glyph unicode="&#x2018;" glyph-name="quoteleft" horiz-adv-x="259" d="M120 679L35 432H175L223 679H120Z" />
<glyph unicode="&#x2019;" glyph-name="quoteright" horiz-adv-x="254" d="M144 433L229 680H88L41 433H144Z" />
<glyph unicode="&#x201c;" glyph-name="quotedblleft" horiz-adv-x="443" d="M120 679L35 432H175L223 679H120ZM304 679L219 432H359L407 679H304Z" />
<glyph unicode="&#x201d;" glyph-name="quotedblright" horiz-adv-x="439" d="M143 434L229 681H88L41 434H143ZM328 434L413 681H272L225 434H328Z" />
</font>
</defs>
</svg>
